<?xml version="1.0" encoding="UTF-8" standalone="no"?><svg xmlns="http://www.w3.org/2000/svg" xmlns:xlink="http://www.w3.org/1999/xlink" contentStyleType="text/css" height="437px" preserveAspectRatio="none" style="width:327px;height:437px;background:#FFFFFF;" version="1.1" viewBox="0 0 327 437" width="327px" zoomAndPan="magnify"><defs/><g><rect fill="#FFFFFF" height="29.1328" style="stroke:#181818;stroke-width:1.0;" width="10" x="196.5" y="129.6953"/><rect fill="#FFFFFF" height="29.1328" style="stroke:#181818;stroke-width:1.0;" width="10" x="196.5" y="227.2266"/><rect fill="#FFFFFF" height="29.1328" style="stroke:#181818;stroke-width:1.0;" width="10" x="270.5" y="350.7578"/><rect fill="none" height="90.5313" style="stroke:#000000;stroke-width:1.5;" width="226" x="10" y="173.8281"/><line style="stroke:#181818;stroke-width:0.5;stroke-dasharray:5.0,5.0;" x1="48" x2="48" y1="40.2969" y2="397.8906"/><line style="stroke:#181818;stroke-width:0.5;stroke-dasharray:5.0,5.0;" x1="201" x2="201" y1="40.2969" y2="397.8906"/><line style="stroke:#181818;stroke-width:0.5;stroke-dasharray:5.0,5.0;" x1="275" x2="275" y1="40.2969" y2="397.8906"/><rect fill="#E2E2F0" height="30.2969" style="stroke:#181818;stroke-width:0.5;" width="53" x="24" y="5"/><rect fill="#E2E2F0" height="30.2969" style="stroke:#181818;stroke-width:0.5;" width="53" x="20" y="9"/><text fill="#000000" font-family="sans-serif" font-size="14" lengthAdjust="spacing" textLength="39" x="27" y="28.9951">Client</text><rect fill="#E2E2F0" height="30.2969" style="stroke:#181818;stroke-width:0.5;" width="53" x="24" y="396.8906"/><rect fill="#E2E2F0" height="30.2969" style="stroke:#181818;stroke-width:0.5;" width="53" x="20" y="400.8906"/><text fill="#000000" font-family="sans-serif" font-size="14" lengthAdjust="spacing" textLength="39" x="27" y="420.8857">Client</text><rect fill="#E2E2F0" height="30.2969" style="stroke:#181818;stroke-width:0.5;" width="45" x="181" y="5"/><rect fill="#E2E2F0" height="30.2969" style="stroke:#181818;stroke-width:0.5;" width="45" x="177" y="9"/><text fill="#000000" font-family="sans-serif" font-size="14" lengthAdjust="spacing" textLength="31" x="184" y="28.9951">CDN</text><rect fill="#E2E2F0" height="30.2969" style="stroke:#181818;stroke-width:0.5;" width="45" x="181" y="396.8906"/><rect fill="#E2E2F0" height="30.2969" style="stroke:#181818;stroke-width:0.5;" width="45" x="177" y="400.8906"/><text fill="#000000" font-family="sans-serif" font-size="14" lengthAdjust="spacing" textLength="31" x="184" y="420.8857">CDN</text><rect fill="#E2E2F0" height="30.2969" style="stroke:#181818;stroke-width:0.5;" width="75" x="240" y="5"/><rect fill="#E2E2F0" height="30.2969" style="stroke:#181818;stroke-width:0.5;" width="75" x="236" y="9"/><text fill="#000000" font-family="sans-serif" font-size="14" lengthAdjust="spacing" textLength="61" x="243" y="28.9951">Backend</text><rect fill="#E2E2F0" height="30.2969" style="stroke:#181818;stroke-width:0.5;" width="75" x="240" y="396.8906"/><rect fill="#E2E2F0" height="30.2969" style="stroke:#181818;stroke-width:0.5;" width="75" x="236" y="400.8906"/><text fill="#000000" font-family="sans-serif" font-size="14" lengthAdjust="spacing" textLength="61" x="243" y="420.8857">Backend</text><rect fill="#FFFFFF" height="29.1328" style="stroke:#181818;stroke-width:1.0;" width="10" x="196.5" y="129.6953"/><rect fill="#FFFFFF" height="29.1328" style="stroke:#181818;stroke-width:1.0;" width="10" x="196.5" y="227.2266"/><rect fill="#FFFFFF" height="29.1328" style="stroke:#181818;stroke-width:1.0;" width="10" x="270.5" y="350.7578"/><rect fill="#EEEEEE" height="3" style="stroke:#EEEEEE;stroke-width:1.0;" width="320" x="0" y="70.8633"/><line style="stroke:#000000;stroke-width:1.0;" x1="0" x2="320" y1="70.8633" y2="70.8633"/><line style="stroke:#000000;stroke-width:1.0;" x1="0" x2="320" y1="73.8633" y2="73.8633"/><rect fill="#EEEEEE" height="23.1328" style="stroke:#000000;stroke-width:2.0;" width="148" x="86" y="60.2969"/><text fill="#000000" font-family="sans-serif" font-size="13" font-weight="bold" lengthAdjust="spacing" textLength="129" x="92" y="76.3638">Frontend request</text><polygon fill="#181818" points="184.5,125.6953,194.5,129.6953,184.5,133.6953,188.5,129.6953" style="stroke:#181818;stroke-width:1.0;"/><line style="stroke:#181818;stroke-width:1.0;" x1="48.5" x2="190.5" y1="129.6953" y2="129.6953"/><text fill="#000000" font-family="sans-serif" font-size="13" lengthAdjust="spacing" textLength="129" x="55.5" y="109.4966">GET /{frontend-like}</text><text fill="#000000" font-family="sans-serif" font-size="13" lengthAdjust="spacing" textLength="101" x="55.5" y="124.6294">Host: kamu.dev</text><polygon fill="#181818" points="59.5,154.8281,49.5,158.8281,59.5,162.8281,55.5,158.8281" style="stroke:#181818;stroke-width:1.0;"/><line style="stroke:#181818;stroke-width:1.0;" x1="53.5" x2="200.5" y1="158.8281" y2="158.8281"/><text fill="#000000" font-family="sans-serif" font-size="13" lengthAdjust="spacing" textLength="67" x="65.5" y="153.7622">index.html</text><path d="M10,173.8281 L87,173.8281 L87,180.9609 L77,190.9609 L10,190.9609 L10,173.8281 " fill="#EEEEEE" style="stroke:#000000;stroke-width:1.5;"/><rect fill="none" height="90.5313" style="stroke:#000000;stroke-width:1.5;" width="226" x="10" y="173.8281"/><text fill="#000000" font-family="sans-serif" font-size="13" font-weight="bold" lengthAdjust="spacing" textLength="32" x="25" y="186.895">loop</text><text fill="#000000" font-family="sans-serif" font-size="11" font-weight="bold" lengthAdjust="spacing" textLength="119" x="102" y="186.0386">[foreach resource]</text><polygon fill="#181818" points="184.5,223.2266,194.5,227.2266,184.5,231.2266,188.5,227.2266" style="stroke:#181818;stroke-width:1.0;"/><line style="stroke:#181818;stroke-width:1.0;" x1="48.5" x2="190.5" y1="227.2266" y2="227.2266"/><text fill="#000000" font-family="sans-serif" font-size="13" lengthAdjust="spacing" textLength="79" x="55.5" y="207.0278">GET /static/*</text><text fill="#000000" font-family="sans-serif" font-size="13" lengthAdjust="spacing" textLength="101" x="55.5" y="222.1606">Host: kamu.dev</text><polygon fill="#181818" points="59.5,252.3594,49.5,256.3594,59.5,260.3594,55.5,256.3594" style="stroke:#181818;stroke-width:1.0;"/><line style="stroke:#181818;stroke-width:1.0;" x1="53.5" x2="200.5" y1="256.3594" y2="256.3594"/><text fill="#000000" font-family="sans-serif" font-size="13" lengthAdjust="spacing" textLength="56" x="65.5" y="251.2935">resource</text><rect fill="#EEEEEE" height="3" style="stroke:#EEEEEE;stroke-width:1.0;" width="320" x="0" y="291.9258"/><line style="stroke:#000000;stroke-width:1.0;" x1="0" x2="320" y1="291.9258" y2="291.9258"/><line style="stroke:#000000;stroke-width:1.0;" x1="0" x2="320" y1="294.9258" y2="294.9258"/><rect fill="#EEEEEE" height="23.1328" style="stroke:#000000;stroke-width:2.0;" width="105" x="107.5" y="281.3594"/><text fill="#000000" font-family="sans-serif" font-size="13" font-weight="bold" lengthAdjust="spacing" textLength="86" x="113.5" y="297.4263">API request</text><polygon fill="#181818" points="258.5,346.7578,268.5,350.7578,258.5,354.7578,262.5,350.7578" style="stroke:#181818;stroke-width:1.0;"/><line style="stroke:#181818;stroke-width:1.0;" x1="48.5" x2="264.5" y1="350.7578" y2="350.7578"/><text fill="#000000" font-family="sans-serif" font-size="13" lengthAdjust="spacing" textLength="63" x="55.5" y="330.5591">GET /api/*</text><text fill="#000000" font-family="sans-serif" font-size="13" lengthAdjust="spacing" textLength="101" x="55.5" y="345.6919">Host: kamu.dev</text><polygon fill="#181818" points="59.5,375.8906,49.5,379.8906,59.5,383.8906,55.5,379.8906" style="stroke:#181818;stroke-width:1.0;"/><line style="stroke:#181818;stroke-width:1.0;" x1="53.5" x2="274.5" y1="379.8906" y2="379.8906"/><text fill="#000000" font-family="sans-serif" font-size="13" lengthAdjust="spacing" textLength="83" x="65.5" y="374.8247">API response</text><!--SRC=[RP3DYy8m4CNlyrSC7WNrNgYmhVK3YknXZti9wOYXQLARgGZB_kyxHlSZhe5SvhrvFzveRorfDju5d9JMaEC9ge1b3JgHLllRVBLFXKBfbbmJnQ82o7DS3zwnp72WqqY1CSy1oXfdo-jwXflg3HSVXxjhParBd-zkwmDdsAfkd3Tq1YM0isAAHFbnkyxGk8OkyoDt5XfAJ62zx_7W1naVXHtyE6W2bFS83wpOwCNq7_LgJaBZzYyzINtWInU8_LzUTq-g5zKThdhpXFmJ9KSigc_UBIhqSchwsrTCNm00]--></g></svg>