<?xml version="1.0" encoding="UTF-8" standalone="no"?><svg xmlns="http://www.w3.org/2000/svg" xmlns:xlink="http://www.w3.org/1999/xlink" contentStyleType="text/css" height="471px" preserveAspectRatio="none" style="width:559px;height:471px;background:#FFFFFF;" version="1.1" viewBox="0 0 559 471" width="559px" zoomAndPan="magnify"><defs/><g><rect fill="#FFFFFF" height="39.6992" style="stroke:#181818;stroke-width:1.0;" width="10" x="196.5" y="129.6953"/><rect fill="#FFFFFF" height="42" style="stroke:#181818;stroke-width:1.0;" width="10" x="196.5" y="371.8906"/><rect fill="#FFFFFF" height="14" style="stroke:#181818;stroke-width:1.0;" width="10" x="302" y="385.8906"/><rect fill="#FFFFFF" height="29.1328" style="stroke:#181818;stroke-width:1.0;" width="10" x="376" y="248.3594"/><rect fill="none" height="90.5313" style="stroke:#000000;stroke-width:1.5;" width="405.5" x="10" y="194.9609"/><line style="stroke:#181818;stroke-width:0.5;stroke-dasharray:5.0,5.0;" x1="48" x2="48" y1="40.2969" y2="431.8906"/><line style="stroke:#181818;stroke-width:0.5;stroke-dasharray:5.0,5.0;" x1="201.5" x2="201.5" y1="40.2969" y2="431.8906"/><line style="stroke:#181818;stroke-width:0.5;stroke-dasharray:5.0,5.0;" x1="306.5" x2="306.5" y1="40.2969" y2="431.8906"/><line style="stroke:#181818;stroke-width:0.5;stroke-dasharray:5.0,5.0;" x1="380.5" x2="380.5" y1="40.2969" y2="431.8906"/><rect fill="#E2E2F0" height="30.2969" style="stroke:#181818;stroke-width:0.5;" width="53" x="24" y="5"/><rect fill="#E2E2F0" height="30.2969" style="stroke:#181818;stroke-width:0.5;" width="53" x="20" y="9"/><text fill="#000000" font-family="sans-serif" font-size="14" lengthAdjust="spacing" textLength="39" x="27" y="28.9951">Client</text><rect fill="#E2E2F0" height="30.2969" style="stroke:#181818;stroke-width:0.5;" width="53" x="24" y="430.8906"/><rect fill="#E2E2F0" height="30.2969" style="stroke:#181818;stroke-width:0.5;" width="53" x="20" y="434.8906"/><text fill="#000000" font-family="sans-serif" font-size="14" lengthAdjust="spacing" textLength="39" x="27" y="454.8857">Client</text><rect fill="#E2E2F0" height="30.2969" rx="2.5" ry="2.5" style="stroke:#181818;stroke-width:0.5;" width="112" x="145.5" y="9"/><text fill="#000000" font-family="sans-serif" font-size="14" lengthAdjust="spacing" textLength="98" x="152.5" y="28.9951">Reverse Proxy</text><rect fill="#E2E2F0" height="30.2969" rx="2.5" ry="2.5" style="stroke:#181818;stroke-width:0.5;" width="112" x="145.5" y="430.8906"/><text fill="#000000" font-family="sans-serif" font-size="14" lengthAdjust="spacing" textLength="98" x="152.5" y="450.8857">Reverse Proxy</text><rect fill="#E2E2F0" height="30.2969" style="stroke:#181818;stroke-width:0.5;" width="75" x="271.5" y="5"/><rect fill="#E2E2F0" height="30.2969" style="stroke:#181818;stroke-width:0.5;" width="75" x="267.5" y="9"/><text fill="#000000" font-family="sans-serif" font-size="14" lengthAdjust="spacing" textLength="61" x="274.5" y="28.9951">Backend</text><rect fill="#E2E2F0" height="30.2969" style="stroke:#181818;stroke-width:0.5;" width="75" x="271.5" y="430.8906"/><rect fill="#E2E2F0" height="30.2969" style="stroke:#181818;stroke-width:0.5;" width="75" x="267.5" y="434.8906"/><text fill="#000000" font-family="sans-serif" font-size="14" lengthAdjust="spacing" textLength="61" x="274.5" y="454.8857">Backend</text><rect fill="#E2E2F0" height="30.2969" style="stroke:#181818;stroke-width:0.5;" width="45" x="360.5" y="5"/><rect fill="#E2E2F0" height="30.2969" style="stroke:#181818;stroke-width:0.5;" width="45" x="356.5" y="9"/><text fill="#000000" font-family="sans-serif" font-size="14" lengthAdjust="spacing" textLength="31" x="363.5" y="28.9951">CDN</text><rect fill="#E2E2F0" height="30.2969" style="stroke:#181818;stroke-width:0.5;" width="45" x="360.5" y="430.8906"/><rect fill="#E2E2F0" height="30.2969" style="stroke:#181818;stroke-width:0.5;" width="45" x="356.5" y="434.8906"/><text fill="#000000" font-family="sans-serif" font-size="14" lengthAdjust="spacing" textLength="31" x="363.5" y="454.8857">CDN</text><rect fill="#FFFFFF" height="39.6992" style="stroke:#181818;stroke-width:1.0;" width="10" x="196.5" y="129.6953"/><rect fill="#FFFFFF" height="42" style="stroke:#181818;stroke-width:1.0;" width="10" x="196.5" y="371.8906"/><rect fill="#FFFFFF" height="14" style="stroke:#181818;stroke-width:1.0;" width="10" x="302" y="385.8906"/><rect fill="#FFFFFF" height="29.1328" style="stroke:#181818;stroke-width:1.0;" width="10" x="376" y="248.3594"/><rect fill="#EEEEEE" height="3" style="stroke:#EEEEEE;stroke-width:1.0;" width="552.5" x="0" y="70.8633"/><line style="stroke:#000000;stroke-width:1.0;" x1="0" x2="552.5" y1="70.8633" y2="70.8633"/><line style="stroke:#000000;stroke-width:1.0;" x1="0" x2="552.5" y1="73.8633" y2="73.8633"/><rect fill="#EEEEEE" height="23.1328" style="stroke:#000000;stroke-width:2.0;" width="148" x="202.25" y="60.2969"/><text fill="#000000" font-family="sans-serif" font-size="13" font-weight="bold" lengthAdjust="spacing" textLength="129" x="208.25" y="76.3638">Frontend request</text><polygon fill="#181818" points="184.5,125.6953,194.5,129.6953,184.5,133.6953,188.5,129.6953" style="stroke:#181818;stroke-width:1.0;"/><line style="stroke:#181818;stroke-width:1.0;" x1="48.5" x2="190.5" y1="129.6953" y2="129.6953"/><text fill="#000000" font-family="sans-serif" font-size="13" lengthAdjust="spacing" textLength="129" x="55.5" y="109.4966">GET /{frontend-like}</text><text fill="#000000" font-family="sans-serif" font-size="13" lengthAdjust="spacing" textLength="101" x="55.5" y="124.6294">Host: kamu.dev</text><polygon fill="#181818" points="59.5,165.3945,49.5,169.3945,59.5,173.3945,55.5,169.3945" style="stroke:#181818;stroke-width:1.0;"/><line style="stroke:#181818;stroke-width:1.0;" x1="53.5" x2="200.5" y1="169.3945" y2="169.3945"/><text fill="#000000" font-family="sans-serif" font-size="13" lengthAdjust="spacing" textLength="67" x="65.5" y="164.3286">index.html</text><path d="M211,142.6953 L211,182.6953 L542,182.6953 L542,152.6953 L532,142.6953 L211,142.6953 " fill="#FEFFDD" style="stroke:#181818;stroke-width:0.5;"/><path d="M532,142.6953 L532,152.6953 L542,152.6953 L532,142.6953 " fill="#FEFFDD" style="stroke:#181818;stroke-width:0.5;"/><text fill="#000000" font-family="sans-serif" font-size="13" lengthAdjust="spacing" textLength="297" x="217" y="159.7622">Proxy serves static HTML in response where all</text><text fill="#000000" font-family="sans-serif" font-size="13" lengthAdjust="spacing" textLength="310" x="217" y="174.895">resources are fetched from CDN-backed domain</text><path d="M10,194.9609 L87,194.9609 L87,202.0938 L77,212.0938 L10,212.0938 L10,194.9609 " fill="#EEEEEE" style="stroke:#000000;stroke-width:1.5;"/><rect fill="none" height="90.5313" style="stroke:#000000;stroke-width:1.5;" width="405.5" x="10" y="194.9609"/><text fill="#000000" font-family="sans-serif" font-size="13" font-weight="bold" lengthAdjust="spacing" textLength="32" x="25" y="208.0278">loop</text><text fill="#000000" font-family="sans-serif" font-size="11" font-weight="bold" lengthAdjust="spacing" textLength="119" x="102" y="207.1714">[foreach resource]</text><polygon fill="#181818" points="364,244.3594,374,248.3594,364,252.3594,368,248.3594" style="stroke:#181818;stroke-width:1.0;"/><line style="stroke:#181818;stroke-width:1.0;" x1="48.5" x2="370" y1="248.3594" y2="248.3594"/><text fill="#000000" font-family="sans-serif" font-size="13" lengthAdjust="spacing" textLength="40" x="55.5" y="228.1606">GET /*</text><text fill="#000000" font-family="sans-serif" font-size="13" lengthAdjust="spacing" textLength="140" x="55.5" y="243.2935">Host: static.kamu.dev</text><polygon fill="#181818" points="59.5,273.4922,49.5,277.4922,59.5,281.4922,55.5,277.4922" style="stroke:#181818;stroke-width:1.0;"/><line style="stroke:#181818;stroke-width:1.0;" x1="53.5" x2="380" y1="277.4922" y2="277.4922"/><text fill="#000000" font-family="sans-serif" font-size="13" lengthAdjust="spacing" textLength="56" x="65.5" y="272.4263">resource</text><rect fill="#EEEEEE" height="3" style="stroke:#EEEEEE;stroke-width:1.0;" width="552.5" x="0" y="313.0586"/><line style="stroke:#000000;stroke-width:1.0;" x1="0" x2="552.5" y1="313.0586" y2="313.0586"/><line style="stroke:#000000;stroke-width:1.0;" x1="0" x2="552.5" y1="316.0586" y2="316.0586"/><rect fill="#EEEEEE" height="23.1328" style="stroke:#000000;stroke-width:2.0;" width="105" x="223.75" y="302.4922"/><text fill="#000000" font-family="sans-serif" font-size="13" font-weight="bold" lengthAdjust="spacing" textLength="86" x="229.75" y="318.5591">API request</text><polygon fill="#181818" points="184.5,367.8906,194.5,371.8906,184.5,375.8906,188.5,371.8906" style="stroke:#181818;stroke-width:1.0;"/><line style="stroke:#181818;stroke-width:1.0;" x1="48.5" x2="190.5" y1="371.8906" y2="371.8906"/><text fill="#000000" font-family="sans-serif" font-size="13" lengthAdjust="spacing" textLength="129" x="55.5" y="351.6919">GET /{backend-like}</text><text fill="#000000" font-family="sans-serif" font-size="13" lengthAdjust="spacing" textLength="101" x="55.5" y="366.8247">Host: kamu.dev</text><polygon fill="#181818" points="290,381.8906,300,385.8906,290,389.8906,294,385.8906" style="stroke:#181818;stroke-width:1.0;"/><line style="stroke:#181818;stroke-width:1.0;" x1="206.5" x2="296" y1="385.8906" y2="385.8906"/><polygon fill="#181818" points="217.5,395.8906,207.5,399.8906,217.5,403.8906,213.5,399.8906" style="stroke:#181818;stroke-width:1.0;"/><line style="stroke:#181818;stroke-width:1.0;" x1="211.5" x2="306" y1="399.8906" y2="399.8906"/><polygon fill="#181818" points="59.5,409.8906,49.5,413.8906,59.5,417.8906,55.5,413.8906" style="stroke:#181818;stroke-width:1.0;"/><line style="stroke:#181818;stroke-width:1.0;" x1="53.5" x2="200.5" y1="413.8906" y2="413.8906"/><!--SRC=[ZL4zJyCm4DtzAquTaLhsI44YQQ58eQfGHnRNlXAhZXriDnGX_Zjdfobf1uGNI-Ttp-z3MArH16MDXqcf5Pem0UwXh5ZBNL12jTm4cBnWXyuZh9qzVYP4LJ0nNYwusAEHwQrONBwLyrNFEbynbkVmuAm910Q7xmVq0VASiRA2wHtHPl2usC3jr-u4ccgrn-zNixG-PB3dpM4ciMESo3iUC0fXLH5tooe3PIGUPtLeD9CunXXBjrDlTM109na1Zwv33pvmiWhBpND51AJAjwGRuQD6Xy2rJYiqjWSd2CzfkiCWQfH0CfjeRBgD0KYGjk7AiEWkVicOjhQ5dNMafZvp9CBUCUsUBDyC9dizixFN23vxYI6cxVbgC7t1Eh8TeII4fT3lrqz_vhtj2_n7t7tQLurdy8kX_ej5ppvkWSP3KLVb_000]--></g></svg>