<?xml version="1.0" encoding="UTF-8" standalone="no"?><svg xmlns="http://www.w3.org/2000/svg" xmlns:xlink="http://www.w3.org/1999/xlink" contentStyleType="text/css" height="569px" preserveAspectRatio="none" style="width:615px;height:569px;background:#FFFFFF;" version="1.1" viewBox="0 0 615 569" width="615px" zoomAndPan="magnify"><defs/><g><rect fill="#FFFFFF" height="111.5313" style="stroke:#181818;stroke-width:1.0;" width="10" x="196.5" y="132.6953"/><rect fill="#FFFFFF" height="29.1328" style="stroke:#181818;stroke-width:1.0;" width="10" x="196.5" y="312.625"/><rect fill="#FFFFFF" height="73" style="stroke:#181818;stroke-width:1.0;" width="10" x="196.5" y="439.1563"/><rect fill="#FFFFFF" height="47.2656" style="stroke:#181818;stroke-width:1.0;" width="10" x="297.5" y="167.8281"/><rect fill="#FFFFFF" height="42" style="stroke:#181818;stroke-width:1.0;" width="10" x="297.5" y="456.1563"/><rect fill="#FFFFFF" height="14" style="stroke:#181818;stroke-width:1.0;" width="10" x="403" y="470.1563"/><rect fill="none" height="90.5313" style="stroke:#000000;stroke-width:1.5;" width="558.5" x="10" y="259.2266"/><line style="stroke:#181818;stroke-width:0.5;stroke-dasharray:5.0,5.0;" x1="48" x2="48" y1="40.2969" y2="530.1563"/><line style="stroke:#181818;stroke-width:0.5;stroke-dasharray:5.0,5.0;" x1="201" x2="201" y1="40.2969" y2="530.1563"/><line style="stroke:#181818;stroke-width:0.5;stroke-dasharray:5.0,5.0;" x1="302.5" x2="302.5" y1="40.2969" y2="530.1563"/><line style="stroke:#181818;stroke-width:0.5;stroke-dasharray:5.0,5.0;" x1="407.5" x2="407.5" y1="40.2969" y2="530.1563"/><rect fill="#E2E2F0" height="30.2969" style="stroke:#181818;stroke-width:0.5;" width="53" x="24" y="5"/><rect fill="#E2E2F0" height="30.2969" style="stroke:#181818;stroke-width:0.5;" width="53" x="20" y="9"/><text fill="#000000" font-family="sans-serif" font-size="14" lengthAdjust="spacing" textLength="39" x="27" y="28.9951">Client</text><rect fill="#E2E2F0" height="30.2969" style="stroke:#181818;stroke-width:0.5;" width="53" x="24" y="529.1563"/><rect fill="#E2E2F0" height="30.2969" style="stroke:#181818;stroke-width:0.5;" width="53" x="20" y="533.1563"/><text fill="#000000" font-family="sans-serif" font-size="14" lengthAdjust="spacing" textLength="39" x="27" y="553.1514">Client</text><rect fill="#E2E2F0" height="30.2969" style="stroke:#181818;stroke-width:0.5;" width="45" x="181" y="5"/><rect fill="#E2E2F0" height="30.2969" style="stroke:#181818;stroke-width:0.5;" width="45" x="177" y="9"/><text fill="#000000" font-family="sans-serif" font-size="14" lengthAdjust="spacing" textLength="31" x="184" y="28.9951">CDN</text><rect fill="#E2E2F0" height="30.2969" style="stroke:#181818;stroke-width:0.5;" width="45" x="181" y="529.1563"/><rect fill="#E2E2F0" height="30.2969" style="stroke:#181818;stroke-width:0.5;" width="45" x="177" y="533.1563"/><text fill="#000000" font-family="sans-serif" font-size="14" lengthAdjust="spacing" textLength="31" x="184" y="553.1514">CDN</text><rect fill="#E2E2F0" height="30.2969" rx="2.5" ry="2.5" style="stroke:#181818;stroke-width:0.5;" width="112" x="246.5" y="9"/><text fill="#000000" font-family="sans-serif" font-size="14" lengthAdjust="spacing" textLength="98" x="253.5" y="28.9951">Reverse Proxy</text><rect fill="#E2E2F0" height="30.2969" rx="2.5" ry="2.5" style="stroke:#181818;stroke-width:0.5;" width="112" x="246.5" y="529.1563"/><text fill="#000000" font-family="sans-serif" font-size="14" lengthAdjust="spacing" textLength="98" x="253.5" y="549.1514">Reverse Proxy</text><rect fill="#E2E2F0" height="30.2969" style="stroke:#181818;stroke-width:0.5;" width="75" x="372.5" y="5"/><rect fill="#E2E2F0" height="30.2969" style="stroke:#181818;stroke-width:0.5;" width="75" x="368.5" y="9"/><text fill="#000000" font-family="sans-serif" font-size="14" lengthAdjust="spacing" textLength="61" x="375.5" y="28.9951">Backend</text><rect fill="#E2E2F0" height="30.2969" style="stroke:#181818;stroke-width:0.5;" width="75" x="372.5" y="529.1563"/><rect fill="#E2E2F0" height="30.2969" style="stroke:#181818;stroke-width:0.5;" width="75" x="368.5" y="533.1563"/><text fill="#000000" font-family="sans-serif" font-size="14" lengthAdjust="spacing" textLength="61" x="375.5" y="553.1514">Backend</text><rect fill="#FFFFFF" height="111.5313" style="stroke:#181818;stroke-width:1.0;" width="10" x="196.5" y="132.6953"/><rect fill="#FFFFFF" height="29.1328" style="stroke:#181818;stroke-width:1.0;" width="10" x="196.5" y="312.625"/><rect fill="#FFFFFF" height="73" style="stroke:#181818;stroke-width:1.0;" width="10" x="196.5" y="439.1563"/><rect fill="#FFFFFF" height="47.2656" style="stroke:#181818;stroke-width:1.0;" width="10" x="297.5" y="167.8281"/><rect fill="#FFFFFF" height="42" style="stroke:#181818;stroke-width:1.0;" width="10" x="297.5" y="456.1563"/><rect fill="#FFFFFF" height="14" style="stroke:#181818;stroke-width:1.0;" width="10" x="403" y="470.1563"/><rect fill="#EEEEEE" height="3" style="stroke:#EEEEEE;stroke-width:1.0;" width="608.5" x="0" y="70.8633"/><line style="stroke:#000000;stroke-width:1.0;" x1="0" x2="608.5" y1="70.8633" y2="70.8633"/><line style="stroke:#000000;stroke-width:1.0;" x1="0" x2="608.5" y1="73.8633" y2="73.8633"/><rect fill="#EEEEEE" height="23.1328" style="stroke:#000000;stroke-width:2.0;" width="148" x="230.25" y="60.2969"/><text fill="#000000" font-family="sans-serif" font-size="13" font-weight="bold" lengthAdjust="spacing" textLength="129" x="236.25" y="76.3638">Frontend request</text><polygon fill="#181818" points="184.5,128.6953,194.5,132.6953,184.5,136.6953,188.5,132.6953" style="stroke:#181818;stroke-width:1.0;"/><line style="stroke:#181818;stroke-width:1.0;" x1="48.5" x2="190.5" y1="132.6953" y2="132.6953"/><text fill="#000000" font-family="sans-serif" font-size="13" lengthAdjust="spacing" textLength="129" x="55.5" y="112.4966">GET /{frontend-like}</text><text fill="#000000" font-family="sans-serif" font-size="13" lengthAdjust="spacing" textLength="101" x="55.5" y="127.6294">Host: kamu.dev</text><path d="M211,98.4297 L211,138.4297 L513,138.4297 L513,108.4297 L503,98.4297 L211,98.4297 " fill="#FEFFDD" style="stroke:#181818;stroke-width:0.5;"/><path d="M503,98.4297 L503,108.4297 L513,108.4297 L503,98.4297 " fill="#FEFFDD" style="stroke:#181818;stroke-width:0.5;"/><text fill="#000000" font-family="sans-serif" font-size="13" lengthAdjust="spacing" textLength="281" x="217" y="115.4966">CDN can't tell if its a frontend or API request</text><text fill="#000000" font-family="sans-serif" font-size="13" lengthAdjust="spacing" textLength="167" x="217" y="130.6294">so it directs it to the proxy</text><polygon fill="#181818" points="285.5,163.8281,295.5,167.8281,285.5,171.8281,289.5,167.8281" style="stroke:#181818;stroke-width:1.0;"/><line style="stroke:#181818;stroke-width:1.0;" x1="206.5" x2="291.5" y1="167.8281" y2="167.8281"/><path d="M312,148.6953 L312,188.6953 L608,188.6953 L608,158.6953 L598,148.6953 L312,148.6953 " fill="#FEFFDD" style="stroke:#181818;stroke-width:0.5;"/><path d="M598,148.6953 L598,158.6953 L608,158.6953 L598,148.6953 " fill="#FEFFDD" style="stroke:#181818;stroke-width:0.5;"/><text fill="#000000" font-family="sans-serif" font-size="13" lengthAdjust="spacing" textLength="237" x="318" y="165.7622">Proxy serves static HTML in response</text><text fill="#000000" font-family="sans-serif" font-size="13" lengthAdjust="spacing" textLength="275" x="318" y="180.895">where all resources have clear /static prefix</text><polygon fill="#181818" points="217.5,211.0938,207.5,215.0938,217.5,219.0938,213.5,215.0938" style="stroke:#181818;stroke-width:1.0;"/><line style="stroke:#181818;stroke-width:1.0;" x1="211.5" x2="301.5" y1="215.0938" y2="215.0938"/><text fill="#000000" font-family="sans-serif" font-size="13" lengthAdjust="spacing" textLength="67" x="223.5" y="210.0278">index.html</text><polygon fill="#181818" points="59.5,240.2266,49.5,244.2266,59.5,248.2266,55.5,244.2266" style="stroke:#181818;stroke-width:1.0;"/><line style="stroke:#181818;stroke-width:1.0;" x1="53.5" x2="200.5" y1="244.2266" y2="244.2266"/><text fill="#000000" font-family="sans-serif" font-size="13" lengthAdjust="spacing" textLength="67" x="65.5" y="239.1606">index.html</text><path d="M10,259.2266 L87,259.2266 L87,266.3594 L77,276.3594 L10,276.3594 L10,259.2266 " fill="#EEEEEE" style="stroke:#000000;stroke-width:1.5;"/><rect fill="none" height="90.5313" style="stroke:#000000;stroke-width:1.5;" width="558.5" x="10" y="259.2266"/><text fill="#000000" font-family="sans-serif" font-size="13" font-weight="bold" lengthAdjust="spacing" textLength="32" x="25" y="272.2935">loop</text><text fill="#000000" font-family="sans-serif" font-size="11" font-weight="bold" lengthAdjust="spacing" textLength="119" x="102" y="271.437">[foreach resource]</text><polygon fill="#181818" points="184.5,308.625,194.5,312.625,184.5,316.625,188.5,312.625" style="stroke:#181818;stroke-width:1.0;"/><line style="stroke:#181818;stroke-width:1.0;" x1="48.5" x2="190.5" y1="312.625" y2="312.625"/><text fill="#000000" font-family="sans-serif" font-size="13" lengthAdjust="spacing" textLength="79" x="55.5" y="292.4263">GET /static/*</text><text fill="#000000" font-family="sans-serif" font-size="13" lengthAdjust="spacing" textLength="101" x="55.5" y="307.5591">Host: kamu.dev</text><path d="M211,285.9258 L211,310.9258 L563,310.9258 L563,295.9258 L553,285.9258 L211,285.9258 " fill="#FEFFDD" style="stroke:#181818;stroke-width:0.5;"/><path d="M553,285.9258 L553,295.9258 L563,295.9258 L553,285.9258 " fill="#FEFFDD" style="stroke:#181818;stroke-width:0.5;"/><text fill="#000000" font-family="sans-serif" font-size="13" lengthAdjust="spacing" textLength="331" x="217" y="302.9927">Now CDN knows for sure that this is a static content</text><polygon fill="#181818" points="59.5,337.7578,49.5,341.7578,59.5,345.7578,55.5,341.7578" style="stroke:#181818;stroke-width:1.0;"/><line style="stroke:#181818;stroke-width:1.0;" x1="53.5" x2="200.5" y1="341.7578" y2="341.7578"/><text fill="#000000" font-family="sans-serif" font-size="13" lengthAdjust="spacing" textLength="56" x="65.5" y="336.6919">resource</text><rect fill="#EEEEEE" height="3" style="stroke:#EEEEEE;stroke-width:1.0;" width="608.5" x="0" y="377.3242"/><line style="stroke:#000000;stroke-width:1.0;" x1="0" x2="608.5" y1="377.3242" y2="377.3242"/><line style="stroke:#000000;stroke-width:1.0;" x1="0" x2="608.5" y1="380.3242" y2="380.3242"/><rect fill="#EEEEEE" height="23.1328" style="stroke:#000000;stroke-width:2.0;" width="105" x="251.75" y="366.7578"/><text fill="#000000" font-family="sans-serif" font-size="13" font-weight="bold" lengthAdjust="spacing" textLength="86" x="257.75" y="382.8247">API request</text><polygon fill="#181818" points="184.5,435.1563,194.5,439.1563,184.5,443.1563,188.5,439.1563" style="stroke:#181818;stroke-width:1.0;"/><line style="stroke:#181818;stroke-width:1.0;" x1="48.5" x2="190.5" y1="439.1563" y2="439.1563"/><text fill="#000000" font-family="sans-serif" font-size="13" lengthAdjust="spacing" textLength="129" x="55.5" y="418.9575">GET /{backend-like}</text><text fill="#000000" font-family="sans-serif" font-size="13" lengthAdjust="spacing" textLength="101" x="55.5" y="434.0903">Host: kamu.dev</text><path d="M211,404.8906 L211,444.8906 L521,444.8906 L521,414.8906 L511,404.8906 L211,404.8906 " fill="#FEFFDD" style="stroke:#181818;stroke-width:0.5;"/><path d="M511,404.8906 L511,414.8906 L521,414.8906 L511,404.8906 " fill="#FEFFDD" style="stroke:#181818;stroke-width:0.5;"/><text fill="#000000" font-family="sans-serif" font-size="13" lengthAdjust="spacing" textLength="257" x="217" y="421.9575">Traffic still flows via CDN node to provide</text><text fill="#000000" font-family="sans-serif" font-size="13" lengthAdjust="spacing" textLength="289" x="217" y="437.0903">DDoS protection and connection multiplexing</text><polygon fill="#181818" points="285.5,452.1563,295.5,456.1563,285.5,460.1563,289.5,456.1563" style="stroke:#181818;stroke-width:1.0;"/><line style="stroke:#181818;stroke-width:1.0;" x1="206.5" x2="291.5" y1="456.1563" y2="456.1563"/><polygon fill="#181818" points="391,466.1563,401,470.1563,391,474.1563,395,470.1563" style="stroke:#181818;stroke-width:1.0;"/><line style="stroke:#181818;stroke-width:1.0;" x1="307.5" x2="397" y1="470.1563" y2="470.1563"/><polygon fill="#181818" points="318.5,480.1563,308.5,484.1563,318.5,488.1563,314.5,484.1563" style="stroke:#181818;stroke-width:1.0;"/><line style="stroke:#181818;stroke-width:1.0;" x1="312.5" x2="407" y1="484.1563" y2="484.1563"/><polygon fill="#181818" points="217.5,494.1563,207.5,498.1563,217.5,502.1563,213.5,498.1563" style="stroke:#181818;stroke-width:1.0;"/><line style="stroke:#181818;stroke-width:1.0;" x1="211.5" x2="301.5" y1="498.1563" y2="498.1563"/><polygon fill="#181818" points="59.5,508.1563,49.5,512.1563,59.5,516.1563,55.5,512.1563" style="stroke:#181818;stroke-width:1.0;"/><line style="stroke:#181818;stroke-width:1.0;" x1="53.5" x2="200.5" y1="512.1563" y2="512.1563"/><!--SRC=[dLF1ZjCm4BtxAqQz827jzhvIaKXRMAHGhQ17BiQPR4PrxM1FqYB4lpDsqj06LaZavBpCUDvxysAyjMYOl8kmM5j2nmlG4TQbCZUVDhi1t-nKgmEJeLOxXiKdx354XAVWpzzpILdSjXRQ7D1L-LknLMgrWdV1EnOC0dxhC3AiLagjIxXxamOymFlj7fO_wh7gpj81VtvnZpxo0npqiRkli5TQ1lIQCNDoNWw1dXjM88z0OBHxnS1eBL0Dn14qNAu47-3jquVB_DmJlHH1HK6OntHa3zmWj4cPIarfY4fN2qzHEH6Gysn-TWCYXXuZHDRY5ppkFvP0JcR6Lep1N7XgC21euIYmxuAH-aRt2CQY3h0SUzk0DPr_aoYBoIjo5Pxl6pvQLU4rfP7ekdof9lcchFSjr3u8t4mS1Wzd-nYeB5__iOXKV7Df0cQ6f6VdJtan1-TFCSs4s8buRhHutP1udbOqAZPvKKFp9Fkosb7M3TsPCEbHEMjNQ_vxpBuE-VoFbEs3hclX6fbaWRLDidhIcQBp5QO4INfwgWQAcut_d00U_WtGeajqkl7rs5ccrkAPtFE_yZO4G7wd2PHpiHqhhxmGU0hBIm6PX-8N]--></g></svg>