<?xml version="1.0" encoding="UTF-8" standalone="no"?><svg xmlns="http://www.w3.org/2000/svg" xmlns:xlink="http://www.w3.org/1999/xlink" contentStyleType="text/css" height="332px" preserveAspectRatio="none" style="width:345px;height:332px;background:#FFFFFF;" version="1.1" viewBox="0 0 345 332" width="345px" zoomAndPan="magnify"><defs/><g><rect fill="#FFFFFF" height="29.1328" style="stroke:#181818;stroke-width:1.0;" width="10" x="214.5" y="129.6953"/><rect fill="#FFFFFF" height="29.1328" style="stroke:#181818;stroke-width:1.0;" width="10" x="288.5" y="246.2266"/><line style="stroke:#181818;stroke-width:0.5;stroke-dasharray:5.0,5.0;" x1="33" x2="33" y1="40.2969" y2="293.3594"/><line style="stroke:#181818;stroke-width:0.5;stroke-dasharray:5.0,5.0;" x1="219" x2="219" y1="40.2969" y2="293.3594"/><line style="stroke:#181818;stroke-width:0.5;stroke-dasharray:5.0,5.0;" x1="293" x2="293" y1="40.2969" y2="293.3594"/><rect fill="#E2E2F0" height="30.2969" style="stroke:#181818;stroke-width:0.5;" width="53" x="9" y="5"/><rect fill="#E2E2F0" height="30.2969" style="stroke:#181818;stroke-width:0.5;" width="53" x="5" y="9"/><text fill="#000000" font-family="sans-serif" font-size="14" lengthAdjust="spacing" textLength="39" x="12" y="28.9951">Client</text><rect fill="#E2E2F0" height="30.2969" style="stroke:#181818;stroke-width:0.5;" width="53" x="9" y="292.3594"/><rect fill="#E2E2F0" height="30.2969" style="stroke:#181818;stroke-width:0.5;" width="53" x="5" y="296.3594"/><text fill="#000000" font-family="sans-serif" font-size="14" lengthAdjust="spacing" textLength="39" x="12" y="316.3545">Client</text><rect fill="#E2E2F0" height="30.2969" style="stroke:#181818;stroke-width:0.5;" width="45" x="199" y="5"/><rect fill="#E2E2F0" height="30.2969" style="stroke:#181818;stroke-width:0.5;" width="45" x="195" y="9"/><text fill="#000000" font-family="sans-serif" font-size="14" lengthAdjust="spacing" textLength="31" x="202" y="28.9951">CDN</text><rect fill="#E2E2F0" height="30.2969" style="stroke:#181818;stroke-width:0.5;" width="45" x="199" y="292.3594"/><rect fill="#E2E2F0" height="30.2969" style="stroke:#181818;stroke-width:0.5;" width="45" x="195" y="296.3594"/><text fill="#000000" font-family="sans-serif" font-size="14" lengthAdjust="spacing" textLength="31" x="202" y="316.3545">CDN</text><rect fill="#E2E2F0" height="30.2969" style="stroke:#181818;stroke-width:0.5;" width="75" x="258" y="5"/><rect fill="#E2E2F0" height="30.2969" style="stroke:#181818;stroke-width:0.5;" width="75" x="254" y="9"/><text fill="#000000" font-family="sans-serif" font-size="14" lengthAdjust="spacing" textLength="61" x="261" y="28.9951">Backend</text><rect fill="#E2E2F0" height="30.2969" style="stroke:#181818;stroke-width:0.5;" width="75" x="258" y="292.3594"/><rect fill="#E2E2F0" height="30.2969" style="stroke:#181818;stroke-width:0.5;" width="75" x="254" y="296.3594"/><text fill="#000000" font-family="sans-serif" font-size="14" lengthAdjust="spacing" textLength="61" x="261" y="316.3545">Backend</text><rect fill="#FFFFFF" height="29.1328" style="stroke:#181818;stroke-width:1.0;" width="10" x="214.5" y="129.6953"/><rect fill="#FFFFFF" height="29.1328" style="stroke:#181818;stroke-width:1.0;" width="10" x="288.5" y="246.2266"/><rect fill="#EEEEEE" height="3" style="stroke:#EEEEEE;stroke-width:1.0;" width="338" x="0" y="70.8633"/><line style="stroke:#000000;stroke-width:1.0;" x1="0" x2="338" y1="70.8633" y2="70.8633"/><line style="stroke:#000000;stroke-width:1.0;" x1="0" x2="338" y1="73.8633" y2="73.8633"/><rect fill="#EEEEEE" height="23.1328" style="stroke:#000000;stroke-width:2.0;" width="148" x="95" y="60.2969"/><text fill="#000000" font-family="sans-serif" font-size="13" font-weight="bold" lengthAdjust="spacing" textLength="129" x="101" y="76.3638">Frontend request</text><polygon fill="#181818" points="202.5,125.6953,212.5,129.6953,202.5,133.6953,206.5,129.6953" style="stroke:#181818;stroke-width:1.0;"/><line style="stroke:#181818;stroke-width:1.0;" x1="33.5" x2="208.5" y1="129.6953" y2="129.6953"/><text fill="#000000" font-family="sans-serif" font-size="13" lengthAdjust="spacing" textLength="40" x="40.5" y="109.4966">GET /*</text><text fill="#000000" font-family="sans-serif" font-size="13" lengthAdjust="spacing" textLength="101" x="40.5" y="124.6294">Host: kamu.dev</text><polygon fill="#181818" points="44.5,154.8281,34.5,158.8281,44.5,162.8281,40.5,158.8281" style="stroke:#181818;stroke-width:1.0;"/><line style="stroke:#181818;stroke-width:1.0;" x1="38.5" x2="218.5" y1="158.8281" y2="158.8281"/><text fill="#000000" font-family="sans-serif" font-size="13" lengthAdjust="spacing" textLength="157" x="50.5" y="153.7622">HTML, CSS, JS, images...</text><rect fill="#EEEEEE" height="3" style="stroke:#EEEEEE;stroke-width:1.0;" width="338" x="0" y="187.3945"/><line style="stroke:#000000;stroke-width:1.0;" x1="0" x2="338" y1="187.3945" y2="187.3945"/><line style="stroke:#000000;stroke-width:1.0;" x1="0" x2="338" y1="190.3945" y2="190.3945"/><rect fill="#EEEEEE" height="23.1328" style="stroke:#000000;stroke-width:2.0;" width="105" x="116.5" y="176.8281"/><text fill="#000000" font-family="sans-serif" font-size="13" font-weight="bold" lengthAdjust="spacing" textLength="86" x="122.5" y="192.895">API request</text><polygon fill="#181818" points="276.5,242.2266,286.5,246.2266,276.5,250.2266,280.5,246.2266" style="stroke:#181818;stroke-width:1.0;"/><line style="stroke:#181818;stroke-width:1.0;" x1="33.5" x2="282.5" y1="246.2266" y2="246.2266"/><text fill="#000000" font-family="sans-serif" font-size="13" lengthAdjust="spacing" textLength="40" x="40.5" y="226.0278">GET /*</text><text fill="#000000" font-family="sans-serif" font-size="13" lengthAdjust="spacing" textLength="124" x="40.5" y="241.1606">Host: api.kamu.dev</text><polygon fill="#181818" points="44.5,271.3594,34.5,275.3594,44.5,279.3594,40.5,275.3594" style="stroke:#181818;stroke-width:1.0;"/><line style="stroke:#181818;stroke-width:1.0;" x1="38.5" x2="292.5" y1="275.3594" y2="275.3594"/><text fill="#000000" font-family="sans-serif" font-size="13" lengthAdjust="spacing" textLength="12" x="50.5" y="270.2935">...</text><!--SRC=[RO-n3e8m48RtUueBey6was0YfOgc4XCONHgu608KfONdjs0SG8UxuV_otvShkgQXmbQTDkZnfY9jFLG6kOHYWUBqayVf4aIgg4cNCum4G1ZYiU-qTHdsz1h8M0n302vnkv_g0Pv4ZhlDNIUTiG7MgXrOIICeTt9KbcO7k3KNP819VfK-yYppyUAcQjM336CCIbfs9ldXTlxZZSHQgvuL-rMx3oBnzQuKZhq1]--></g></svg>